<svg width="89" height="55" viewBox="0 0 89 55" fill="none" xmlns="http://www.w3.org/2000/svg">
    <g clip-path="url(#clip0_127_3479)">
        <path d="M28.4501 48.8414C28.8596 46.9087 28.9638 44.976 28.4737 43.0409C26.8474 36.6395 20.2569 33.1732 13.5599 35.1964C10.7551 36.0446 8.29721 37.7432 6.53991 40.0476C4.78262 42.352 3.81654 45.1433 3.78071 48.02C3.78071 48.1616 3.78071 48.3031 3.78071 48.5746C1.88689 47.8785 0.715093 46.6279 0.203762 44.8089C0.0320292 44.2055 -0.0312533 43.5774 0.0167468 42.9528C0.40498 38.2753 0.833456 33.6001 1.25483 28.9249C1.28081 28.7841 1.3172 28.6453 1.36373 28.5096H36.2266C37.6469 28.5096 38.5559 27.9017 38.8306 26.7579C38.9082 26.491 38.9226 26.2102 38.8727 25.937C38.8227 25.6638 38.7097 25.4054 38.5423 25.1816C38.3749 24.9577 38.1575 24.7743 37.9067 24.6454C37.6559 24.5165 37.3784 24.4454 37.0953 24.4377C36.8065 24.4191 36.5177 24.4377 36.2289 24.4377H1.66674L2.39112 16.2892H33.1657C34.5316 16.2892 35.3767 15.7602 35.7294 14.7022C35.8294 14.4287 35.8625 14.136 35.826 13.8477C35.7895 13.5594 35.6845 13.2835 35.5194 13.0422C35.3543 12.801 35.1337 12.601 34.8754 12.4586C34.617 12.3161 34.3282 12.235 34.0321 12.2219C33.7741 12.2033 33.5113 12.2219 33.2533 12.2219H2.76278C2.90245 10.5978 3.02318 9.02932 3.17232 7.46783C3.22264 6.64976 3.33341 5.83634 3.50374 5.03396C3.8824 3.61248 4.72533 2.35151 5.90382 1.44365C7.08231 0.535783 8.53158 0.0309022 10.0303 0.00610776C26.7148 -0.00936014 43.3994 -0.00936014 60.0839 0.00610776C63.3555 0.00610776 65.808 2.5189 65.6423 5.77644C65.486 8.853 65.1428 11.9226 64.8706 14.9922C64.3829 20.5142 63.8889 26.0355 63.3886 31.556C63.2987 32.5699 63.1661 33.5815 63.1259 34.5978C63.1022 35.1755 62.8347 35.4029 62.3234 35.6187C57.8989 37.4911 55.0535 40.7091 53.9645 45.3263C53.7018 46.4423 53.697 47.6187 53.5668 48.8344L28.4501 48.8414Z" fill="#DB7093"/>
        <path d="M78.3189 49.0069C80.0919 40.9513 74.8106 34.8283 67.2803 34.5963C67.8816 27.8445 68.4828 21.0897 69.0841 14.3318C69.2643 14.3007 69.446 14.2798 69.6286 14.2691C73.0067 14.2691 76.3848 14.2343 79.7605 14.2691C85.2786 14.3364 89.5705 19.051 88.9361 24.4107C88.652 24.4107 88.3466 24.4455 88.0436 24.4478C84.9259 24.4478 81.8082 24.4478 78.6905 24.4478C77.398 24.4478 76.4227 25.3179 76.3232 26.4756C76.2238 27.6334 77.0334 28.5058 78.3189 28.5128C81.3963 28.529 84.4951 28.5128 87.5844 28.5128H88.5833C88.465 29.9049 88.3466 31.1833 88.2354 32.587H85.9131C84.6418 32.587 83.3706 32.5707 82.1018 32.587C80.7784 32.6079 79.7345 33.6125 79.7345 34.812C79.7487 35.9721 80.6033 36.6543 82.0449 36.6682H87.8779C87.6885 38.7332 87.5133 40.7192 87.3216 42.7007C87.047 45.5452 85.0798 47.9559 82.284 48.6218C81.0436 48.9304 79.7203 48.8886 78.3189 49.0069Z" fill="#DB7093"/>
        <path d="M24.6173 46.1624C24.6173 51.5267 19.4235 55.8167 14.0782 54.8678C9.9402 54.1346 7.31015 50.3248 8.07952 46.1764C8.97908 41.304 13.7231 38 18.5405 38.8654C22.1293 39.5105 24.6197 42.4988 24.6173 46.1624Z" fill="#DB7093"/>
        <path d="M74.5075 46.1276C74.5241 51.5313 69.3114 55.8306 63.9187 54.8608C59.8044 54.123 57.2052 50.297 57.9793 46.1276C58.8764 41.29 63.6607 37.9907 68.4828 38.8724C72.0172 39.5174 74.4981 42.5058 74.5075 46.1276Z" fill="#DB7093"/>
    </g>
    <defs>
        <clipPath id="clip0_127_3479">
            <rect width="89" height="55" fill="white"/>
        </clipPath>
    </defs>
</svg>
