<svg  width="16" height="18" viewBox="0 0 16 18" fill="none" xmlns="http://www.w3.org/2000/svg">
    <path d="M4.84297 3.49721C4.84865 2.70005 5.19935 1.93748 5.81817 1.37669C6.43699 0.815898 7.27343 0.502655 8.14411 0.505636C9.92898 0.514902 11.3795 1.82287 11.4107 3.49721C11.8129 3.49721 12.2186 3.47443 12.6196 3.50416C12.9569 3.52964 13.3065 3.57404 13.6206 3.68291C14.6878 4.05275 15.3684 4.98354 15.3692 6.02822C15.3717 9.03459 15.3717 12.041 15.3692 15.0473C15.3692 16.4298 14.1346 17.5633 12.6284 17.5652C9.62539 17.5693 6.62236 17.5693 3.61932 17.5652C2.13382 17.5625 0.892888 16.4321 0.890358 15.0751C0.885017 12.043 0.885017 9.01091 0.890358 5.9788C0.892888 4.63339 2.13846 3.50455 3.60709 3.4976C4.01821 3.49567 4.43101 3.49721 4.84297 3.49721ZM6.38876 4.89398V5.11017C6.38876 5.58541 6.39466 6.06103 6.38454 6.53627C6.38453 6.67029 6.35589 6.80302 6.30021 6.92696C6.1598 7.21728 5.79422 7.36977 5.4569 7.30183C5.10777 7.23079 4.86236 6.95438 4.85688 6.60036C4.84887 6.09848 4.85435 5.5966 4.85435 5.09743V4.88355H3.79389C2.92612 4.88355 2.40242 5.36188 2.40242 6.15099C2.40242 9.08015 2.40242 12.0092 2.40242 14.9381C2.40242 15.689 2.93708 16.1789 3.75973 16.1793C6.67085 16.1793 9.58224 16.1793 12.4939 16.1793C13.3267 16.1793 13.8563 15.6897 13.8563 14.9226C13.8563 13.3938 13.8563 11.8652 13.8563 10.3366C13.8563 8.91697 13.8563 7.49743 13.8563 6.07802C13.8563 5.46766 13.441 4.98663 12.7819 4.91135C12.3354 4.86077 11.8766 4.9017 11.4031 4.9017V5.1121C11.4031 5.58734 11.409 6.06258 11.3989 6.53782C11.398 6.67199 11.3685 6.80471 11.312 6.92851C11.1708 7.21844 10.8035 7.37055 10.4687 7.30144C10.1196 7.22925 9.87839 6.95399 9.8708 6.59843C9.86236 6.09655 9.86869 5.5966 9.86742 5.0955C9.86742 5.02832 9.86152 4.96076 9.85815 4.89398H6.38876ZM9.86742 3.48833C9.83369 2.88222 9.54865 2.42744 8.99122 2.13712C8.37813 1.81631 7.75408 1.83754 7.16587 2.19272C6.66874 2.49307 6.40689 2.92623 6.39424 3.48949L9.86742 3.48833Z" fill="#DB7093"/>
</svg>
