<svg width="73" height="58" viewBox="0 0 73 58" fill="none" xmlns="http://www.w3.org/2000/svg">
    <path d="M37.3383 38.796V39.6894C37.3383 42.449 37.3383 45.1989 37.3383 47.9704C37.3383 49.7573 36.6707 51.1563 35.0722 51.9611C33.4737 52.766 32.0327 52.4546 30.641 51.403C21.0673 44.1657 11.4872 36.9363 1.90086 29.715C0.377574 28.5652 -0.306492 27.0441 0.123694 25.1038C0.339723 24.1624 0.893047 23.3371 1.67519 22.7898C11.401 15.5046 21.1245 8.21697 30.8456 0.926953C32.1996 -0.0910955 33.6665 -0.311452 35.1709 0.469451C36.6754 1.25035 37.3971 2.55343 37.3947 4.27812C37.3947 7.19094 37.3947 10.1038 37.383 13.0166C37.383 13.4957 37.5123 13.637 37.973 13.7088C43.3445 14.5616 48.4714 16.1546 53.2035 18.9428C59.0263 22.3707 63.4386 27.1878 66.6685 33.1644C69.607 38.6043 71.3489 44.4611 72.4584 50.5359C72.63 51.4749 72.7852 52.4186 72.9286 53.36C73.2483 55.3434 72.2915 57.0609 70.5003 57.7292C68.709 58.3976 66.9248 57.8203 66.015 56.1603C61.1278 47.2446 53.5349 42.1926 43.918 40.0392C41.7765 39.5601 39.6138 39.2223 37.3383 38.796Z" fill="#DB7093"/>
</svg>
