<svg width="14" height="14" viewBox="0 0 14 14" fill="none" xmlns="http://www.w3.org/2000/svg">
    <path d="M12.0341 13.4185L7.50696 8.92772C5.49304 10.3478 2.71794 10.0004 1.12288 8.12865C-0.472174 6.25688 -0.355054 3.48513 1.39231 1.75229C3.13922 0.0186902 5.93416 -0.0979725 7.82175 1.48392C9.70935 3.06581 10.0598 5.81843 8.62786 7.81601L13.155 12.3068L12.0349 13.4178L12.0341 13.4185ZM4.75264 1.94241C3.25047 1.94207 1.9545 2.98788 1.64935 4.44666C1.3442 5.90544 2.11374 7.37625 3.49206 7.96861C4.87039 8.56098 6.47866 8.11207 7.34318 6.89369C8.20769 5.6753 8.09083 4.02231 7.06335 2.93549L7.54261 3.40689L7.00236 2.87264L6.99285 2.86321C6.40015 2.27175 5.59343 1.94016 4.75264 1.94241Z" fill="#757575"/>
</svg>
