<svg width="76" height="48" viewBox="0 0 76 48" fill="none" xmlns="http://www.w3.org/2000/svg">
    <path d="M38.0143 47.9988H5.81165C3.05382 47.9988 0.935335 46.518 0.236398 44.0733C0.0899315 43.5682 0.0142747 43.0456 0.0115452 42.5202C0.000708908 30.2225 0.000708908 17.9258 0.0115452 5.62989C0.0115452 2.3899 2.40094 0.0067749 5.70057 0.0067749C27.2701 0.0067749 48.8415 0.0067749 70.4146 0.0067749C73.6655 0.0067749 76.0115 2.3899 76.0142 5.62989C76.0142 17.8365 76.0142 30.0449 76.0142 42.2551C76.0142 45.6852 73.6845 48.0014 70.2087 48.0041C59.4682 48.0148 48.7367 48.013 38.0143 47.9988ZM37.2286 20.8016C37.2448 20.4007 37.0991 20.0099 36.8238 19.7152C36.5484 19.4204 36.1659 19.2458 35.7603 19.2298C33.5931 19.0504 31.4258 18.8549 29.2586 18.7184C28.2589 18.6541 27.606 18.2471 27.2214 17.3179C26.4357 15.4088 25.5959 13.5237 24.7967 11.6199C24.4689 10.8353 23.9651 10.3078 23.0711 10.3185C22.1771 10.3292 21.7165 10.8541 21.405 11.6065C20.5923 13.5719 19.7227 15.5212 18.891 17.4813C18.7638 17.8243 18.5367 18.1223 18.2382 18.3378C17.9397 18.5532 17.5833 18.6763 17.2141 18.6916C15.0685 18.8683 12.9229 19.0584 10.7746 19.2004C9.92129 19.2539 9.23861 19.4922 8.95957 20.3545C8.68054 21.2167 9.04897 21.8245 9.70186 22.3707C11.3598 23.7631 12.9988 25.1823 14.6486 26.5854C14.9319 26.7988 15.1426 27.0926 15.2525 27.4276C15.3624 27.7625 15.3662 28.1226 15.2636 28.4597C14.7461 30.5483 14.2748 32.645 13.76 34.7336C13.5541 35.561 13.676 36.2652 14.3967 36.782C15.1173 37.2988 15.7972 37.1515 16.5043 36.7177C18.295 35.6199 20.1128 34.5756 21.9008 33.4563C22.2355 33.2187 22.6373 33.0909 23.0494 33.0909C23.4615 33.0909 23.8633 33.2187 24.198 33.4563C25.986 34.5595 27.7957 35.6306 29.5999 36.7124C30.4858 37.2479 31.1034 37.2479 31.7672 36.7632C32.4309 36.2786 32.5501 35.5476 32.3577 34.7523C31.8647 32.728 31.415 30.6929 30.903 28.6713C30.67 27.7555 30.8705 27.0647 31.6127 26.4542C33.2382 25.1153 34.8447 23.7042 36.462 22.3306C36.9306 21.9209 37.2449 21.4523 37.2178 20.8016H37.2286ZM54.4041 14.1744C57.5105 14.1744 60.6178 14.1744 63.7259 14.1744C64.4682 14.1744 65.1428 14.0084 65.6223 13.4219C65.8938 13.1074 66.0674 12.7219 66.1221 12.312C66.1768 11.9022 66.1104 11.4854 65.9309 11.112C65.7513 10.7386 65.4662 10.4245 65.1101 10.2077C64.7539 9.99091 64.3419 9.88058 63.9237 9.89008C57.5303 9.89008 51.1378 9.89008 44.7463 9.89008C44.6126 9.88915 44.4791 9.90171 44.348 9.92757C43.8731 10.0062 43.4383 10.2389 43.112 10.589C42.7858 10.9391 42.5868 11.3866 42.5465 11.8608C42.5108 12.3251 42.6315 12.788 42.8897 13.1774C43.148 13.5668 43.5293 13.8608 43.9742 14.0137C44.3571 14.122 44.7545 14.1717 45.1526 14.161C48.2328 14.1797 51.3184 14.1744 54.4041 14.1744ZM54.358 26.0954C57.5114 26.0954 60.6647 26.0954 63.8181 26.0954C65.2376 26.0954 66.1506 25.2921 66.1479 24.0389C66.1479 22.7001 65.243 21.8539 63.7937 21.8486C61.575 21.8486 59.3535 21.8486 57.1321 21.8486H44.8763C43.7927 21.8486 43.007 22.3547 42.6874 23.241C42.5633 23.5663 42.5226 23.917 42.5689 24.2618C42.6152 24.6065 42.7471 24.9345 42.9529 25.2166C43.1586 25.4986 43.4318 25.726 43.748 25.8784C44.0642 26.0308 44.4137 26.1035 44.7652 26.09C47.9646 26.1061 51.1613 26.0954 54.358 26.0954ZM54.358 38.1155C57.487 38.1155 60.6159 38.1155 63.7449 38.1155C64.4682 38.1155 65.1184 37.9735 65.6087 37.4193C65.8897 37.1076 66.0724 36.7216 66.1344 36.3086C66.1964 35.8957 66.135 35.4739 65.9578 35.095C65.7805 34.7161 65.4951 34.3966 65.1366 34.1759C64.7781 33.9552 64.3622 33.8428 63.94 33.8526H53.4044C50.5437 33.8526 47.6802 33.8526 44.8167 33.8526C44.3469 33.8289 43.8823 33.9588 43.4945 34.222C43.1068 34.4853 42.8174 34.8673 42.6711 35.3093C42.1943 36.7472 43.2129 38.094 44.8221 38.1047C47.9971 38.1262 51.1694 38.1128 54.3445 38.1128L54.358 38.1155Z" fill="#DB7093"/>
</svg>
